<?xml version="1.0" encoding="UTF-8" standalone="no"?>
<svg
   xmlns:dc="http://purl.org/dc/elements/1.1/"
   xmlns:cc="http://creativecommons.org/ns#"
   xmlns:rdf="http://www.w3.org/1999/02/22-rdf-syntax-ns#"
   xmlns:svg="http://www.w3.org/2000/svg"
   xmlns="http://www.w3.org/2000/svg"
   xmlns:sodipodi="http://sodipodi.sourceforge.net/DTD/sodipodi-0.dtd"
   xmlns:inkscape="http://www.inkscape.org/namespaces/inkscape"
   width="360mm"
   height="144.881mm"
   viewBox="0 0 360 144.881"
   version="1.1"
   id="svg8"
   inkscape:version="1.0.2 (e86c870879, 2021-01-15, custom)"
   sodipodi:docname="404_hole.svg">
  <defs
     id="defs2" />
  <sodipodi:namedview
     id="base"
     pagecolor="#ffffff"
     bordercolor="#666666"
     borderopacity="1.0"
     inkscape:pageopacity="0.0"
     inkscape:pageshadow="2"
     inkscape:zoom="0.49497475"
     inkscape:cx="984.14333"
     inkscape:cy="450.09291"
     inkscape:document-units="mm"
     inkscape:current-layer="layer1"
     inkscape:document-rotation="0"
     showgrid="false"
     fit-margin-top="0"
     fit-margin-left="0"
     fit-margin-right="0"
     fit-margin-bottom="0"
     inkscape:pagecheckerboard="true"
     inkscape:showpageshadow="false"
     inkscape:snap-nodes="false"
     inkscape:window-width="1920"
     inkscape:window-height="1001"
     inkscape:window-x="-9"
     inkscape:window-y="-9"
     inkscape:window-maximized="1" />
  <metadata
     id="metadata5">
    <rdf:RDF>
      <cc:Work
         rdf:about="">
        <dc:format>image/svg+xml</dc:format>
        <dc:type
           rdf:resource="http://purl.org/dc/dcmitype/StillImage" />
        <dc:title></dc:title>
      </cc:Work>
    </rdf:RDF>
  </metadata>
  <g
     inkscape:label="Layer 1"
     inkscape:groupmode="layer"
     id="layer1"
     transform="translate(29.999906,22.44032)">
    <path
       id="path859"
       style="fill:#eeeeee;fill-opacity:1;fill-rule:evenodd;stroke:none;stroke-width:0.259054;stroke-linecap:round;stroke-linejoin:round"
       d="M 150.0001,-22.44032 A 180.00005,72.440317 0 0 0 -29.999906,50.000179 180.00005,72.440317 0 0 0 150.0001,122.44068 180.00005,72.440317 0 0 0 330.00009,50.000179 180.00005,72.440317 0 0 0 150.0001,-22.44032 Z m 0,14.4329439 A 158.82357,58.0075 0 0 1 308.82383,50.000179 158.82357,58.0075 0 0 1 150.0001,108.00774 158.82357,58.0075 0 0 1 -8.8236283,50.000179 158.82357,58.0075 0 0 1 150.0001,-8.0073761 Z" />
    <path
       id="ellipse837"
       style="fill:#e0e0e0;fill-opacity:1;fill-rule:evenodd;stroke:none;stroke-width:0.227317;stroke-linecap:round;stroke-linejoin:round"
       d="M 150.0001,-9.94032 A 167.50005,59.940349 0 0 0 -17.499906,50.000179 167.50005,59.940349 0 0 0 150.0001,109.94068 167.50005,59.940349 0 0 0 317.50009,50.000179 167.50005,59.940349 0 0 0 150.0001,-9.94032 Z m 0,11.9424614 A 147.79416,47.997992 0 0 1 297.7944,50.000179 147.79416,47.997992 0 0 1 150.0001,97.998219 147.79416,47.997992 0 0 1 2.2057969,50.000179 147.79416,47.997992 0 0 1 150.0001,2.0021414 Z" />
    <ellipse
       style="fill:#383838;fill-opacity:1;fill-rule:evenodd;stroke:none;stroke-width:0.19647;stroke-linecap:round;stroke-linejoin:round"
       id="path833"
       cx="150"
       cy="50"
       rx="150"
       ry="50" />
    <g
       inkscape:label="Layer 1"
       id="layer1-7"
       transform="translate(-28.933718,175.56796)">
      <path
         id="path912"
         style="fill:#ff3333;fill-opacity:1;stroke:none;stroke-width:0.946678px;stroke-linecap:butt;stroke-linejoin:miter;stroke-opacity:1"
         d="m 205.20492,-190.21128 c 0,0 -43.99579,32.3014 -28.90289,66.2714 l 4.207,1.81453 c 18.12727,-20.44147 24.68578,-49.91215 24.68578,-49.91215 0,0 5.55993,16.84546 -20.47879,51.7267 h 0.001 c 42.55941,-14.62168 20.48683,-69.90048 20.48683,-69.90048 z" />
      <path
         id="path922"
         style="fill:#ff3333;fill-opacity:1;stroke:none;stroke-width:0.946678px;stroke-linecap:butt;stroke-linejoin:miter;stroke-opacity:1"
         d="m 124.64377,-167.67148 c -3.61411,0.0389 -5.82104,0.23463 -5.82104,0.23463 0,0 19.86434,43.6843 55.44948,43.68329 -2.42945,-5.46868 -3.32179,-10.89293 -3.11885,-16.14732 -15.61634,-14.28949 -33.57711,-22.79812 -33.57711,-22.79812 0,0 12.96482,-0.42026 34.0605,18.0262 0.507,-3.11302 1.37265,-6.14618 2.49589,-9.07649 -14.45874,-12.7023 -38.48713,-14.0405 -49.48887,-13.92219 z m 60.94081,36.47433 c -0.0508,0.0756 -0.10077,0.15152 -0.15171,0.22705 0.0694,0.0771 0.13674,0.14768 0.2063,0.22518 -0.0148,-0.15353 -0.0383,-0.29999 -0.0546,-0.45222 z" />
      <path
         id="path920"
         style="fill:#ff3333;fill-opacity:1;stroke:none;stroke-width:4.18163px;stroke-linecap:butt;stroke-linejoin:miter;stroke-opacity:1"
         d="m 593.35156,197.99609 c -1.98009,-0.0412 -2.17617,8.56376 1.42969,33.70118 6.17173,43.02548 4.44062,120.55805 1.53125,184.02929 a 566.92912,188.97638 0 0 0 8.41211,0.0215 566.92912,188.97638 0 0 0 13.08398,-0.0508 c -3.91836,-55.26671 -7.64355,-122.50686 -7.12695,-175.63477 0,0 -12.97376,-41.97063 -17.33008,-42.06641 z"
         transform="matrix(0.26458333,0,0,0.26458333,18.933718,-185.56796)" />
    </g>
  </g>
</svg>
