<?xml version="1.0" encoding="UTF-8" standalone="no"?>
<svg
   xmlns:dc="http://purl.org/dc/elements/1.1/"
   xmlns:cc="http://creativecommons.org/ns#"
   xmlns:rdf="http://www.w3.org/1999/02/22-rdf-syntax-ns#"
   xmlns:svg="http://www.w3.org/2000/svg"
   xmlns="http://www.w3.org/2000/svg"
   xmlns:sodipodi="http://sodipodi.sourceforge.net/DTD/sodipodi-0.dtd"
   xmlns:inkscape="http://www.inkscape.org/namespaces/inkscape"
   version="1.1"
   id="svg2"
   width="100"
   height="100"
   viewBox="0 0 100 100"
   sodipodi:docname="facebook.svg"
   inkscape:version="1.0.2 (e86c870879, 2021-01-15)">
  <metadata
     id="metadata8">
    <rdf:RDF>
      <cc:Work
         rdf:about="">
        <dc:format>image/svg+xml</dc:format>
        <dc:type
           rdf:resource="http://purl.org/dc/dcmitype/StillImage" />
        <dc:title></dc:title>
      </cc:Work>
    </rdf:RDF>
  </metadata>
  <defs
     id="defs6" />
  <sodipodi:namedview
     pagecolor="#ffffff"
     bordercolor="#666666"
     borderopacity="1"
     objecttolerance="10"
     gridtolerance="10"
     guidetolerance="10"
     inkscape:pageopacity="0"
     inkscape:pageshadow="2"
     inkscape:window-width="1920"
     inkscape:window-height="1016"
     id="namedview4"
     showgrid="false"
     inkscape:pagecheckerboard="true"
     inkscape:showpageshadow="false"
     fit-margin-top="0"
     fit-margin-left="0"
     fit-margin-right="0"
     fit-margin-bottom="0"
     inkscape:zoom="2.5283202"
     inkscape:cx="71.998983"
     inkscape:cy="122.85628"
     inkscape:window-x="0"
     inkscape:window-y="27"
     inkscape:window-maximized="1"
     inkscape:current-layer="g10" />
  <g
     inkscape:groupmode="layer"
     inkscape:label="Image"
     id="g10">
    <path
       style="fill:#000000;stroke-width:1.33333"
       id="path837"
       d="" />
    <path
       style="fill:#ffffff;stroke-width:0.243483"
       d="M 38.0684,78.086511 V 56.173033 H 30.1552 22.242 v -9.13062 -9.13061 h 7.89357 7.89356 l 0.097,-9.55672 c 0.095,-9.36705 0.10948,-9.60318 0.72796,-11.89874 1.12786,-4.18615 2.70508,-7.0790706 5.40921,-9.9215206 3.54137,-3.72251 8.108756,-5.75062001 14.435916,-6.41015002 3.002394,-0.31296 9.359954,-0.0158 14.065574,0.65739001 1.33915,0.19159 2.517,0.35182001 2.61744,0.35607001 0.10043,0.004 0.18261,3.51388 0.18261,7.79918 v 7.7914606 h -4.85768 c -2.67172,0 -5.4383,0.12319 -6.14795,0.27377 -2.57465,0.54628 -4.784764,2.12926 -5.828084,4.17434 -0.95403,1.87006 -1.17534,3.83312 -1.17981,10.46523 l -0.004,6.26969 h 8.643654 c 4.75401,0 8.64365,0.0755 8.64365,0.16785 0,0.0923 -0.21681,1.54409 -0.48181,3.22616 -0.26499,1.68206 -0.87434,5.62709 -1.35411,8.76673 -0.47977,3.13964 -0.92683,5.79665 -0.99347,5.90446 -0.0666,0.10782 -3.34692,0.19603 -7.28953,0.19603 H 57.547316 V 78.086511 99.999988 H 47.80799 38.06867 Z"
       id="path839" />
  </g>
</svg>
