<?xml version="1.0" encoding="UTF-8" standalone="no"?>
<svg
   xmlns:dc="http://purl.org/dc/elements/1.1/"
   xmlns:cc="http://creativecommons.org/ns#"
   xmlns:rdf="http://www.w3.org/1999/02/22-rdf-syntax-ns#"
   xmlns:svg="http://www.w3.org/2000/svg"
   xmlns="http://www.w3.org/2000/svg"
   xmlns:sodipodi="http://sodipodi.sourceforge.net/DTD/sodipodi-0.dtd"
   xmlns:inkscape="http://www.inkscape.org/namespaces/inkscape"
   width="194.00766mm"
   height="162.36237mm"
   viewBox="0 0 194.00766 162.36237"
   version="1.1"
   id="svg8"
   inkscape:version="1.0.2 (e86c870879, 2021-01-15, custom)"
   sodipodi:docname="hochdruckwasserstrahlentgraten.svg">
  <defs
     id="defs2" />
  <sodipodi:namedview
     id="base"
     pagecolor="#ffffff"
     bordercolor="#666666"
     borderopacity="1.0"
     inkscape:pageopacity="0.0"
     inkscape:pageshadow="2"
     inkscape:zoom="0.7"
     inkscape:cx="147.13767"
     inkscape:cy="471.75491"
     inkscape:document-units="mm"
     inkscape:current-layer="layer1"
     inkscape:document-rotation="0"
     showgrid="false"
     inkscape:object-paths="true"
     inkscape:snap-intersection-paths="true"
     inkscape:snap-smooth-nodes="true"
     inkscape:snap-midpoints="true"
     inkscape:window-width="1920"
     inkscape:window-height="1001"
     inkscape:window-x="-9"
     inkscape:window-y="-9"
     inkscape:window-maximized="1"
     inkscape:snap-nodes="false"
     fit-margin-top="0"
     fit-margin-left="0"
     fit-margin-right="0"
     fit-margin-bottom="0" />
  <metadata
     id="metadata5">
    <rdf:RDF>
      <cc:Work
         rdf:about="">
        <dc:format>image/svg+xml</dc:format>
        <dc:type
           rdf:resource="http://purl.org/dc/dcmitype/StillImage" />
        <dc:title />
      </cc:Work>
    </rdf:RDF>
  </metadata>
  <g
     inkscape:label="Layer 1"
     inkscape:groupmode="layer"
     id="layer1"
     transform="translate(-8.5269158,-65.503943)">
    <path
       style="fill:#ffd5d5;fill-opacity:0.4;stroke:none;stroke-width:0.162736px;stroke-linecap:butt;stroke-linejoin:miter;stroke-opacity:1"
       d="m 43.920771,214.27831 c -14.521298,8.38388 -25.198042,-12.59268 -13.791035,-19.94139 11.407052,-7.3487 29.780041,11.46945 13.791035,19.94139 z"
       id="path851" />
    <path
       style="fill:#ffd5d5;fill-opacity:0.4;stroke:none;stroke-width:0.149134px;stroke-linecap:butt;stroke-linejoin:miter;stroke-opacity:1"
       d="m 34.682595,184.38678 c 35.79234,13.63518 17.89257,44.31432 58.37561,43.46214 45.582535,-0.95954 48.319405,-36.18192 70.732485,-36.64455 48.37006,-0.99842 58.92449,-93.8005 -11.94485,-94.28907 -29.8183,-0.20558 -23.73522,-31.049893 -60.065935,-31.410226 -37.86348,-0.375542 -127.4037,92.889646 -57.09731,118.881706 z"
       id="path859-3"
       sodipodi:nodetypes="cssssc" />
    <path
       style="fill:#ffd5d5;fill-opacity:0.4;stroke:none;stroke-width:0.0840612px;stroke-linecap:butt;stroke-linejoin:miter;stroke-opacity:1"
       d="m 152.20557,85.862879 c 0,8.66134 -12.14124,8.01981 -12.48251,1.01899 -0.34124,-7.00084 12.82218,-10.35964 12.48251,-1.01899 z"
       id="path863-8" />
    <path
       id="path952"
       style="fill:#ff2a2a;fill-rule:evenodd;stroke:none;stroke-width:0.177906;stroke-linecap:round;stroke-linejoin:round;stroke-miterlimit:4;stroke-dasharray:none;stroke-opacity:1"
       inkscape:transform-center-y="5.1446982e-06"
       d="m 137.74781,128.0708 -31.66985,18.28465 v 36.56907 l 31.66985,-18.28465 z"
       inkscape:transform-center-x="2.2732735e-06" />
    <path
       id="path954"
       style="fill:#ff2a2a;fill-rule:evenodd;stroke:none;stroke-width:0.672401;stroke-linecap:round;stroke-linejoin:round;stroke-miterlimit:4;stroke-dasharray:none;stroke-opacity:1"
       inkscape:transform-center-x="-3.0832682e-06"
       inkscape:transform-center-y="-3.7039417e-06"
       d="M 368.69727 167.36719 L 249 236.47266 L 358.5293 299.71094 L 446.1543 212.08594 L 368.69727 167.36719 z M 456.32031 217.95508 L 368.69727 305.58008 L 488.39258 236.47266 L 456.32031 217.95508 z "
       transform="matrix(0.26458333,0,0,0.26458333,8.5269158,65.503943)" />
    <path
       id="path956"
       style="fill:#d40000;fill-rule:evenodd;stroke:none;stroke-width:0.672401;stroke-linecap:round;stroke-linejoin:round;stroke-miterlimit:4;stroke-dasharray:none;stroke-opacity:1"
       inkscape:transform-center-x="2.6052051e-06"
       inkscape:transform-center-y="2.3400555e-06"
       d="M 249 236.47266 L 249 374.6875 L 270.90625 387.33398 L 358.5293 299.71094 L 249 236.47266 z M 368.69531 305.58008 L 281.07227 393.20312 L 368.69727 443.79492 L 368.69727 305.58008 L 368.69531 305.58008 z "
       transform="matrix(0.26458333,0,0,0.26458333,8.5269158,65.503943)" />
    <path
       id="path958"
       style="fill:#e6e6e6;fill-opacity:0.3;fill-rule:evenodd;stroke:#333333;stroke-width:0.12289;stroke-linecap:round;stroke-linejoin:round;stroke-miterlimit:4;stroke-dasharray:none;stroke-opacity:1"
       d="m 106.07858,109.78598 -31.670414,18.28416 28.980144,16.73179 23.18411,-23.18411 z m 23.1836,13.38471 -23.1836,23.18412 31.6699,-18.28467 z" />
    <path
       id="path960"
       style="fill:#e6e6e6;fill-opacity:0.3;fill-rule:evenodd;stroke:#333333;stroke-width:0.12289;stroke-linecap:round;stroke-linejoin:round;stroke-miterlimit:4;stroke-dasharray:none;stroke-opacity:1"
       d="m 137.74799,128.07025 -31.67021,18.28488 v 36.5695 l 31.67021,-18.28487 z"
       inkscape:transform-center-x="3.4278988e-06" />
    <path
       style="fill:none;stroke:#333333;stroke-width:2.13469;stroke-linecap:round;stroke-linejoin:miter;stroke-miterlimit:4;stroke-dasharray:none;stroke-opacity:1"
       d="m 125.04425,157.3057 25.40712,14.66834"
       id="path855-2" />
    <path
       style="fill:none;stroke:#333333;stroke-width:2.13421;stroke-linecap:round;stroke-linejoin:miter;stroke-miterlimit:4;stroke-dasharray:none;stroke-opacity:1"
       d="m 153.53227,173.75307 11.77997,6.80036"
       id="path857-8" />
    <path
       id="path1054"
       style="fill:#e6e6e6;fill-opacity:0.3;fill-rule:evenodd;stroke:#333333;stroke-width:0.12289;stroke-linecap:round;stroke-linejoin:round;stroke-miterlimit:4;stroke-dasharray:none;stroke-opacity:1"
       inkscape:transform-center-x="-3.4278988e-06"
       d="M 74.408165,128.07014 V 164.64 l 5.796028,3.34605 23.184117,-23.18412 z m 31.669905,18.28467 -23.184117,23.18412 23.184627,13.38574 v -36.56934 z" />
    <rect
       style="fill:#333333;fill-opacity:1;fill-rule:evenodd;stroke-width:0.0643639;stroke-linecap:round;stroke-linejoin:round;stroke-miterlimit:4;stroke-dasharray:none"
       id="rect1024"
       width="200"
       height="3"
       x="-128.48016"
       y="176.91159"
       ry="0.12755263"
       transform="rotate(-45)" />
  </g>
</svg>
