<?xml version="1.0" encoding="UTF-8" standalone="no"?>
<svg
   xmlns:dc="http://purl.org/dc/elements/1.1/"
   xmlns:cc="http://creativecommons.org/ns#"
   xmlns:rdf="http://www.w3.org/1999/02/22-rdf-syntax-ns#"
   xmlns:svg="http://www.w3.org/2000/svg"
   xmlns="http://www.w3.org/2000/svg"
   xmlns:sodipodi="http://sodipodi.sourceforge.net/DTD/sodipodi-0.dtd"
   xmlns:inkscape="http://www.inkscape.org/namespaces/inkscape"
   width="2500"
   height="2500"
   viewBox="0 0 192.756 192.756"
   version="1.1"
   id="svg12"
   sodipodi:docname="ressourcenschonend.svg"
   inkscape:version="1.0.2 (e86c870879, 2021-01-15, custom)">
  <metadata
     id="metadata18">
    <rdf:RDF>
      <cc:Work
         rdf:about="">
        <dc:format>image/svg+xml</dc:format>
        <dc:type
           rdf:resource="http://purl.org/dc/dcmitype/StillImage" />
        <dc:title></dc:title>
      </cc:Work>
    </rdf:RDF>
  </metadata>
  <defs
     id="defs16" />
  <sodipodi:namedview
     pagecolor="#ffffff"
     bordercolor="#666666"
     borderopacity="1"
     objecttolerance="10"
     gridtolerance="10"
     guidetolerance="10"
     inkscape:pageopacity="0"
     inkscape:pageshadow="2"
     inkscape:window-width="1920"
     inkscape:window-height="1001"
     id="namedview14"
     showgrid="false"
     inkscape:pagecheckerboard="true"
     inkscape:zoom="0.21298056"
     inkscape:cx="323.05402"
     inkscape:cy="1500.7243"
     inkscape:window-x="-9"
     inkscape:window-y="-9"
     inkscape:window-maximized="1"
     inkscape:current-layer="g10" />
  <g
     fill-rule="evenodd"
     clip-rule="evenodd"
     id="g10">
    <rect
       style="fill:#dddddd;fill-opacity:1;fill-rule:evenodd;stroke:#000000;stroke-width:0.00839058;stroke-linecap:round;stroke-linejoin:round"
       id="rect859"
       width="192.74762"
       height="192.7476"
       x="0.0041952925"
       y="0.0041952925" />
    <path
       style="fill:#222222;stroke-width:0.385513;fill-opacity:1"
       d="m 112.41257,159.18347 c -4.82186,-8.07532 -8.68605,-14.88438 -8.58709,-15.13125 0.39187,-0.97812 17.28136,-28.98313 17.53371,-29.07359 0.14844,-0.0469 0.26985,2.46219 0.26985,5.58984 v 5.68672 l 19.08285,0.125 c 21.85704,0.14062 21.85752,0.14062 27.85562,-2.92609 0.3328,-0.17032 -18.54397,32.87687 -20.06077,35.11952 -0.54687,0.80781 -1.78712,1.9361 -2.75613,2.50579 l -1.76187,1.03594 -11.08158,0.125 -11.08156,0.12499 -0.22922,0.91406 c -0.12656,0.50313 -0.17031,3.095 -0.0984,5.7611 0.0719,2.6661 0.0297,4.84749 -0.0937,4.84735 -0.12345,0 -4.1699,-6.6072 -8.99176,-14.68251 z m -53.419875,2.49907 c -4.596329,-1.23439 -8.517596,-4.51548 -10.716642,-8.96485 -1.383749,-2.79985 -1.436406,-3.05516 -1.436406,-6.97406 0,-5.16267 0.555312,-6.89687 4.42097,-13.80578 l 2.963843,-5.29719 19.534687,-0.0937 19.534704,-0.0937 v 17.92984 17.92985 l -16.095126,-0.0313 C 64.305803,162.26609 60.6836,162.141 58.992632,161.68945 Z m -18.448939,-18.5611 c -0.831094,-1.43125 -5.162672,-8.87219 -9.625765,-16.53547 -9.045501,-15.53156 -9.501719,-16.37407 -9.84761,-18.18719 -0.455,-2.38547 0.490782,-4.665 5.742345,-13.839216 3.881452,-6.780937 5.085843,-9.187344 4.716703,-9.424531 -0.272657,-0.175 -2.57747,-1.490624 -5.121845,-2.922656 l -4.626156,-2.604063 4.818907,-0.246874 c 2.650391,-0.140626 10.478546,-0.342188 17.39589,-0.45625 l 12.576984,-0.209376 7.835969,14.142501 c 4.309781,7.778445 8.185391,14.740305 8.612469,15.471095 l 0.776563,1.32813 -2.106626,-1.20313 c -1.158593,-0.6625 -3.494453,-1.99594 -5.190718,-2.96406 -1.696251,-0.96876 -3.257563,-1.76032 -3.469593,-1.76063 -0.427656,-7.8e-4 -17.833376,30.01218 -19.000782,32.76328 -0.963126,2.26984 -1.617813,5.14344 -1.69061,7.42109 -0.03282,1.00782 -0.109376,1.83125 -0.171719,1.83125 -0.0625,0 -0.793281,-1.17187 -1.624312,-2.60217 z m 99.741214,-30.45547 c -3.02987,-5.24781 -7.29597,-12.63625 -9.4802,-16.418593 -2.18422,-3.7825 -3.97131,-6.998437 -3.97131,-7.146562 0,-0.309376 30.83009,-17.928906 31.01099,-17.723438 0.79704,0.90625 15.43903,26.809376 15.99754,28.302032 1.18767,3.174381 1.35611,5.509371 0.63204,8.763751 -1.06718,4.79703 -4.42162,9.48577 -8.29407,11.59343 -3.25079,1.76923 -5.72348,2.1708 -13.3703,2.1708 h -7.01582 z M 61.874677,69.149564 c -8.481265,-4.948906 -15.395061,-9.097656 -15.363983,-9.219687 0.173594,-0.68125 14.416687,-25.036251 15.788423,-26.997188 1.880562,-2.688282 3.490217,-4.023437 6.616765,-5.48875 2.015515,-0.945311 2.621031,-1.035938 6.845953,-1.035938 4.473514,0 4.725656,0.04687 7.243484,1.284376 3.868374,1.904844 6.143078,4.394374 10.226141,11.191875 l 3.557593,5.922812 -9.247906,16.051406 c -5.086359,8.828282 -9.472485,16.330001 -9.746953,16.670313 -0.443282,0.549999 -2.221172,-0.385937 -15.919517,-8.378906 z m 52.429643,1.026563 -12.33639,-0.206251 5.09672,-2.891405 c 2.80319,-1.590157 5.1018,-3.047188 5.10803,-3.237657 0.006,-0.190625 -4.16911,-7.606875 -9.27854,-16.480781 C 93.336929,30.761284 91.702818,28.396752 88.123804,25.986439 l -1.951579,-1.314062 h 20.833195 20.83318 l 2.04854,1.020313 c 2.36635,1.179686 2.63918,1.562656 9.08995,12.775781 2.33234,4.054218 4.35884,7.379218 4.50334,7.388906 0.14375,0.0097 2.46781,-1.2875 5.16292,-2.883124 2.6951,-1.595314 4.94169,-2.853126 4.99239,-2.794845 0.0499,0.0625 -3.68784,6.871406 -8.30789,15.140625 l -8.40008,15.035 -5.14355,0.01328 c -2.82893,0.0073 -10.69491,-0.07812 -17.4799,-0.192186 z"
       id="path857" />
  </g>
</svg>
