<?xml version="1.0" encoding="UTF-8" standalone="no"?>
<svg
   xmlns:dc="http://purl.org/dc/elements/1.1/"
   xmlns:cc="http://creativecommons.org/ns#"
   xmlns:rdf="http://www.w3.org/1999/02/22-rdf-syntax-ns#"
   xmlns:svg="http://www.w3.org/2000/svg"
   xmlns="http://www.w3.org/2000/svg"
   xmlns:sodipodi="http://sodipodi.sourceforge.net/DTD/sodipodi-0.dtd"
   xmlns:inkscape="http://www.inkscape.org/namespaces/inkscape"
   width="194.00766mm"
   height="162.36237mm"
   viewBox="0 0 194.00766 162.36237"
   version="1.1"
   id="svg8"
   inkscape:version="1.0.2 (e86c870879, 2021-01-15, custom)"
   sodipodi:docname="thermisches_entgraten.svg">
  <defs
     id="defs2" />
  <sodipodi:namedview
     id="base"
     pagecolor="#ffffff"
     bordercolor="#666666"
     borderopacity="1.0"
     inkscape:pageopacity="0.0"
     inkscape:pageshadow="2"
     inkscape:zoom="1.4"
     inkscape:cx="613.86364"
     inkscape:cy="359.98228"
     inkscape:document-units="mm"
     inkscape:current-layer="layer1"
     inkscape:document-rotation="0"
     showgrid="false"
     inkscape:object-paths="true"
     inkscape:snap-intersection-paths="true"
     inkscape:snap-smooth-nodes="true"
     inkscape:snap-midpoints="true"
     inkscape:window-width="1920"
     inkscape:window-height="1001"
     inkscape:window-x="-9"
     inkscape:window-y="-9"
     inkscape:window-maximized="1"
     inkscape:snap-nodes="true"
     fit-margin-top="0"
     fit-margin-left="0"
     fit-margin-right="0"
     fit-margin-bottom="0" />
  <metadata
     id="metadata5">
    <rdf:RDF>
      <cc:Work
         rdf:about="">
        <dc:format>image/svg+xml</dc:format>
        <dc:type
           rdf:resource="http://purl.org/dc/dcmitype/StillImage" />
        <dc:title />
      </cc:Work>
    </rdf:RDF>
  </metadata>
  <g
     inkscape:label="Layer 1"
     inkscape:groupmode="layer"
     id="layer1"
     transform="translate(-8.5269158,-65.503943)">
    <path
       style="fill:#ffd5d5;fill-opacity:0.4;stroke:none;stroke-width:0.149135px;stroke-linecap:butt;stroke-linejoin:miter;stroke-opacity:1"
       d="m 34.682598,184.38679 c 35.792345,13.63518 17.892561,44.31432 58.375611,43.46213 45.582531,-0.95954 48.319411,-36.18192 70.732481,-36.64455 48.37007,-0.99841 58.9245,-93.800492 -11.94485,-94.289072 C 122.02753,96.709728 128.11061,65.865413 91.77991,65.505074 53.916426,65.12953 -35.623799,158.39473 34.682598,184.38679 Z"
       id="path859"
       sodipodi:nodetypes="cssssc" />
    <path
       id="path853"
       style="fill:#999999;fill-opacity:0.3;fill-rule:evenodd;stroke:#333333;stroke-width:0.672401;stroke-linecap:round;stroke-linejoin:round;stroke-miterlimit:4;stroke-dasharray:none;stroke-opacity:1"
       inkscape:transform-center-x="1.5821926e-06"
       inkscape:transform-center-y="-3.8047282e-06"
       d="M 379.47266 97.150391 L 379.47266 294.00781 L 504.27539 169.20508 L 379.47266 97.150391 z M 514.44141 175.07422 L 387.58594 301.92969 L 552.75781 397.29102 L 552.75781 197.19727 L 514.44141 175.07422 z "
       transform="matrix(0.26458333,0,0,0.26458333,8.5269158,65.503943)" />
    <path
       id="path862"
       style="fill:#e6e6e6;fill-opacity:0.3;fill-rule:evenodd;stroke:#333333;stroke-width:0.672401;stroke-linecap:round;stroke-linejoin:round;stroke-miterlimit:4;stroke-dasharray:none;stroke-opacity:1"
       inkscape:transform-center-x="2.2330828e-06"
       inkscape:transform-center-y="-4.5349852e-06"
       d="M 379.47266 97.150391 L 206.18555 197.19727 L 206.18555 397.29102 L 371.80664 301.66992 L 379.47266 294.00391 L 379.47266 97.150391 z "
       transform="matrix(0.26458333,0,0,0.26458333,8.5269158,65.503943)" />
    <path
       id="path839"
       style="fill:#ff2a2a;fill-rule:evenodd;stroke:none;stroke-width:0.672401;stroke-linecap:round;stroke-linejoin:round;stroke-miterlimit:4;stroke-dasharray:none;stroke-opacity:1"
       inkscape:transform-center-x="2.2732735e-06"
       inkscape:transform-center-y="5.1446982e-06"
       d="M 379.47266 189.97266 L 259.77734 259.07812 L 357.80469 315.67578 L 445.42969 228.05078 L 379.47266 189.97266 z M 455.5957 233.91992 L 367.9707 321.54492 L 379.47266 328.18555 L 379.47266 466.40039 L 499.16992 397.29297 L 499.16992 259.07812 L 455.5957 233.91992 z "
       transform="matrix(0.26458333,0,0,0.26458333,8.5269158,65.503943)" />
    <path
       id="path850"
       style="fill:#d40000;fill-rule:evenodd;stroke:none;stroke-width:0.672401;stroke-linecap:round;stroke-linejoin:round;stroke-miterlimit:4;stroke-dasharray:none;stroke-opacity:1"
       inkscape:transform-center-x="2.6052051e-06"
       inkscape:transform-center-y="2.3400555e-06"
       d="M 259.77734 259.07812 L 259.77734 397.29297 L 270.18164 403.29883 L 357.80469 315.67578 L 259.77734 259.07812 z M 367.9707 321.54492 L 280.34766 409.16797 L 379.47266 466.40039 L 379.47266 328.18555 L 367.9707 321.54492 z "
       transform="matrix(0.26458333,0,0,0.26458333,8.5269158,65.503943)" />
    <path
       style="fill:#ffd5d5;fill-opacity:0.4;stroke:none;stroke-width:0.149135px;stroke-linecap:butt;stroke-linejoin:miter;stroke-opacity:1"
       d="m 165.24843,69.180547 c 15.36617,0 14.22804,21.539952 1.80778,22.145384 -12.42026,0.605432 -18.37916,-22.74798 -1.80778,-22.145384 z"
       id="path861" />
    <path
       style="fill:#ffd5d5;fill-opacity:0.4;stroke:none;stroke-width:0.0840613px;stroke-linecap:butt;stroke-linejoin:miter;stroke-opacity:1"
       d="m 185.5276,201.90978 c 0,8.66135 -12.14126,8.01981 -12.48252,1.01899 -0.34124,-7.00084 12.82218,-10.35963 12.48252,-1.01899 z"
       id="path863" />
    <path
       id="path857"
       style="fill:#e6e6e6;fill-opacity:0.3;fill-rule:evenodd;stroke:#333333;stroke-width:0.177906;stroke-linecap:round;stroke-linejoin:round;stroke-miterlimit:4;stroke-dasharray:none;stroke-opacity:1"
       d="m 108.92922,91.208855 -45.848874,26.470225 45.305754,26.15705 33.56333,-33.5628 z m 35.70996,20.617345 -27.69803,27.69805 37.83592,-21.84517 z" />
    <path
       id="path855"
       style="fill:#e6e6e6;fill-opacity:0.3;fill-rule:evenodd;stroke:#333333;stroke-width:0.177906;stroke-linecap:round;stroke-linejoin:round;stroke-miterlimit:4;stroke-dasharray:none;stroke-opacity:1"
       inkscape:transform-center-x="4.962526e-06"
       d="m 154.7769,117.67905 -37.83644,21.84518 -8.01192,8.01191 v 49.55512 l 45.84836,-26.47074 z" />
    <path
       id="path860"
       style="fill:#e6e6e6;fill-opacity:0.3;fill-rule:evenodd;stroke:#333333;stroke-width:0.177906;stroke-linecap:round;stroke-linejoin:round;stroke-miterlimit:4;stroke-dasharray:none;stroke-opacity:1"
       inkscape:transform-center-y="-3.9155674e-06"
       d="m 63.080175,117.67905 v 52.94148 l 11.741402,6.77891 33.563843,-33.56332 z m 45.848365,29.85658 -31.417204,31.41669 31.417204,18.13894 z" />
    <rect
       style="fill:#333333;fill-opacity:1;fill-rule:evenodd;stroke-width:0.0466528;stroke-linecap:round;stroke-linejoin:round"
       id="rect852"
       width="200"
       height="3"
       x="-125.06766"
       y="179.76242"
       ry="0.031179532"
       transform="rotate(-45)" />
  </g>
</svg>
