<?xml version="1.0" encoding="UTF-8" standalone="no"?>
<svg
   xmlns:dc="http://purl.org/dc/elements/1.1/"
   xmlns:cc="http://creativecommons.org/ns#"
   xmlns:rdf="http://www.w3.org/1999/02/22-rdf-syntax-ns#"
   xmlns:svg="http://www.w3.org/2000/svg"
   xmlns="http://www.w3.org/2000/svg"
   xmlns:sodipodi="http://sodipodi.sourceforge.net/DTD/sodipodi-0.dtd"
   xmlns:inkscape="http://www.inkscape.org/namespaces/inkscape"
   width="517.22137mm"
   height="96.572906mm"
   viewBox="0 0 517.22137 96.572906"
   version="1.1"
   id="svg8"
   inkscape:version="1.0.2 (e86c870879, 2021-01-15, custom)"
   sodipodi:docname="vda.svg">
  <defs
     id="defs2" />
  <sodipodi:namedview
     id="base"
     pagecolor="#ffffff"
     bordercolor="#666666"
     borderopacity="1.0"
     inkscape:pageopacity="0.0"
     inkscape:pageshadow="2"
     inkscape:zoom="0.175"
     inkscape:cx="-688.66823"
     inkscape:cy="-213.80457"
     inkscape:document-units="mm"
     inkscape:current-layer="layer1"
     inkscape:document-rotation="0"
     showgrid="false"
     inkscape:pagecheckerboard="true"
     inkscape:showpageshadow="false"
     fit-margin-top="0"
     fit-margin-left="0"
     fit-margin-right="0"
     fit-margin-bottom="0"
     inkscape:window-width="1920"
     inkscape:window-height="1001"
     inkscape:window-x="-9"
     inkscape:window-y="-9"
     inkscape:window-maximized="1" />
  <metadata
     id="metadata5">
    <rdf:RDF>
      <cc:Work
         rdf:about="">
        <dc:format>image/svg+xml</dc:format>
        <dc:type
           rdf:resource="http://purl.org/dc/dcmitype/StillImage" />
        <dc:title></dc:title>
      </cc:Work>
    </rdf:RDF>
  </metadata>
  <g
     inkscape:label="Layer 1"
     inkscape:groupmode="layer"
     id="layer1"
     transform="translate(79.289013,-52.594115)">
    <path
       id="path949"
       style="fill:#004381;fill-opacity:1;stroke-width:0.264583"
       d="m 126.80201,52.594115 v 48.286445 48.28646 h 1.05834 1.05833 V 100.88056 52.594115 h -1.05833 z m 31.2658,30.162498 4.14289,12.43541 4.14342,12.435417 h 1.98799 1.98851 l 4.03283,-12.107787 c 2.21801,-6.65932 4.03231,-12.25526 4.03231,-12.43542 0,-0.22036 -0.47274,-0.32762 -1.44487,-0.32762 h -1.44487 l -0.37621,1.25677 c -0.20701,0.69123 -1.63407,5.18583 -3.17138,9.98802 -1.53731,4.80219 -2.93958,9.267017 -3.11609,9.921867 l -0.32091,1.19063 -0.37362,-1.32292 c -0.2054,-0.72761 -1.76302,-5.757987 -3.46129,-11.178637 l -3.08766,-9.85573 h -1.76579 z m 50.49045,0 v 12.43541 12.435417 h 1.32292 1.32291 v -0.92604 c 0,-1.06398 0.23892,-1.15671 0.95137,-0.36949 0.27704,0.30615 0.92041,0.77695 1.42988,1.04645 0.64006,0.33859 1.50455,0.49378 2.79725,0.50178 4.70672,0.0294 6.99824,-3.0827 6.98924,-9.491407 -0.008,-5.73226 -2.05005,-8.49629 -6.26732,-8.48269 -1.96646,0.006 -3.35151,0.49473 -4.74751,1.67328 -0.45757,0.3863 -0.90409,0.70229 -0.99219,0.70229 -0.0881,0 -0.16072,-2.14312 -0.16072,-4.7625 v -4.7625 h -1.32291 z m 66.93958,0 v 4.49791 c 0,2.47385 -0.10028,4.49792 -0.22323,4.49792 -0.12298,0 -0.4504,-0.25473 -0.72761,-0.56586 -0.79578,-0.89311 -2.05404,-1.28622 -4.11604,-1.28622 -2.32958,0 -3.77658,0.61971 -5.12474,2.19469 -1.16845,1.36509 -1.71699,3.11171 -1.90479,6.06475 -0.29866,4.696517 1.10551,8.190887 3.76203,9.361697 v -5.1e-4 c 1.04772,0.462 4.41918,0.46636 5.51802,0.007 0.47887,-0.20008 1.30871,-0.74817 1.84383,-1.21801 l 0.97253,-0.85421 v 1.08572 1.08572 h 1.4552 1.45521 V 95.191793 82.756383 h -1.45521 z m 28.83958,0 v 4.49791 c 0,2.47385 -0.1043,4.49792 -0.23201,4.49792 -0.12769,0 -0.38775,-0.18759 -0.57775,-0.41651 -1.31188,-1.58073 -5.17702,-1.96037 -7.61039,-0.74776 -2.5849,1.28811 -3.75944,3.93365 -3.77135,8.49302 -0.0121,4.713177 1.11858,7.258037 3.7269,8.389147 1.21356,0.52624 4.24045,0.53544 5.48235,0.0165 0.53321,-0.22279 1.35517,-0.69903 1.82626,-1.05833 0.47106,-0.3593 0.92363,-0.65319 1.00613,-0.65319 0.0824,0 0.14986,0.41672 0.14986,0.92604 v 0.92604 h 1.32292 1.32291 V 95.191983 82.756573 h -1.32291 z m -100.3148,7.12463 c -1.25341,-0.0127 -2.3898,0.49602 -3.468,1.54357 l -0.99219,0.96428 v -1.11207 -1.11208 h -1.45521 -1.45521 v 8.73125 l 5.2e-4,8.731247 h 1.45521 1.45521 l 0.0145,-6.28386 c 0.0178,-7.485067 0.10137,-7.865687 1.92649,-8.770517 1.11178,-0.55119 1.4247,-0.59921 2.38125,-0.36587 0.60568,0.14775 1.30959,0.35688 1.56425,0.46457 0.40522,0.17139 0.46302,0.0307 0.46302,-1.12499 0,-1.14561 -0.0788,-1.34107 -0.59531,-1.4795 -0.44605,-0.11953 -0.87669,-0.1818 -1.2945,-0.18603 z m 30.17749,0.0191 c -3.54028,0 -5.69228,0.98097 -6.61665,3.01635 -0.27088,0.59648 -0.49516,1.47164 -0.49816,1.94458 -0.006,0.85389 0.003,0.8599 1.28726,0.8599 1.28606,0 1.29455,-0.006 1.47484,-0.99219 0.37285,-2.04043 1.69386,-3.05201 3.98529,-3.05201 2.4711,0 3.37952,1.07897 3.24683,3.85661 l -0.0786,1.6428 -1.05833,0.0749 c -2.2276,0.15768 -5.76223,0.87812 -6.72931,1.37149 -2.06029,1.05108 -2.85477,2.681827 -2.59984,5.335077 0.14168,1.47455 0.73763,2.44526 2.05052,3.33881 1.64153,1.11722 5.65,0.67385 7.53908,-0.83406 l 0.78961,-0.63045 0.26872,0.83147 c 0.26019,0.805 0.32289,0.83418 1.96629,0.91158 1.57314,0.0741 1.67002,0.0469 1.32291,-0.37052 -0.29459,-0.35426 -0.4029,-1.96349 -0.50694,-7.535977 -0.15009,-8.03912 -0.14725,-8.02891 -2.38642,-9.17308 -0.94308,-0.48188 -1.60191,-0.59531 -3.45715,-0.59531 z m 102.94564,0 c -1.31826,0 -1.93804,0.29429 -3.24114,1.53995 l -0.99219,0.94878 v -1.11207 -1.11208 h -1.45521 -1.45521 v 8.73125 8.731247 h 1.45521 1.45521 l 0.004,-6.54844 c 0.004,-7.034927 0.0615,-7.377897 1.39216,-8.365897 0.94782,-0.70367 3.23866,-0.74951 4.25244,-0.0853 l 0.70125,0.4594 v -1.3193 c 0,-1.53547 -0.37632,-1.86758 -2.11667,-1.86758 z m -83.28586,0.004 c -2.07287,-0.005 -3.30485,0.37833 -4.73977,1.47278 l -0.87437,0.66662 v -0.93947 -0.93948 h -1.45521 -1.4552 v 8.73125 8.731247 h 1.4552 1.45521 v -6.6399 c 0,-7.482157 0.0384,-7.654747 1.93167,-8.718847 1.34252,-0.75454 3.47078,-0.80311 4.53874,-0.10336 1.34845,0.88355 1.46709,1.60042 1.46709,8.838737 v 6.62337 h 1.45521 1.45521 v -7.08794 c 0,-6.824347 -0.0221,-7.131567 -0.59531,-8.267187 -0.85561,-1.69523 -2.1622,-2.36182 -4.63847,-2.36782 z m 66.04455,0.002 c -0.37123,-7.9e-4 -0.81796,0.0145 -1.38493,0.0393 -2.19416,0.096 -2.63525,0.20173 -3.76928,0.90124 -2.33556,1.44065 -3.53364,4.3141 -3.53364,8.477 0,4.079137 1.14302,6.518507 3.66852,7.830527 1.25159,0.65024 1.70487,0.73684 3.83646,0.73484 1.97305,-0.002 2.66047,-0.11601 3.74187,-0.6196 1.16448,-0.54226 3.02966,-2.2319 3.04737,-2.76056 0.003,-0.10407 0.10998,-0.63561 0.23669,-1.18132 l 0.23048,-0.99219 h -1.4175 -1.41695 l -0.27184,1.00925 c -0.45865,1.70331 -1.97683,2.7559 -3.97547,2.7559 -2.80424,0 -4.18293,-1.69035 -4.63486,-5.68338 l -0.17206,-1.521347 h 6.01099 6.01101 l -0.16227,-1.91978 c -0.29635,-3.50608 -1.31037,-5.36135 -3.52123,-6.44302 -0.97417,-0.47664 -1.40967,-0.62446 -2.52336,-0.62683 z m -134.20266,0.005 c -1.10172,0.005 -2.22581,0.11037 -2.90784,0.31471 -1.58255,0.47415 -3.40663,2.36883 -4.10414,4.26279 -1.09029,2.96049 -0.98458,7.586767 0.22686,9.936337 0.67676,1.31261 2.06316,2.58395 3.32073,3.04426 0.57928,0.21204 2.02063,0.39381 3.2029,0.40411 3.51856,0.0305 5.54155,-0.96786 6.60994,-3.26233 0.96462,-2.07167 0.89334,-2.27532 -0.79272,-2.27532 -1.41692,0 -1.42659,0.006 -1.59732,0.91571 -0.47398,2.52648 -4.14762,3.73166 -6.55877,2.15181 -1.04632,-0.68558 -1.84874,-2.56399 -2.0004,-4.68344 l -0.13022,-1.823657 h 5.89008 5.8906 l -0.11886,-2.05569 c -0.20315,-3.50931 -1.63376,-5.79445 -4.15582,-6.63887 -0.59381,-0.19881 -1.67331,-0.29519 -2.77502,-0.29042 z m 85.66557,1.72754 c 0.86926,0.006 1.74606,0.27347 2.52285,0.84233 1.34461,0.98468 1.60764,1.9677 1.60764,6.01978 2.3e-4,2.038257 -0.11584,4.111147 -0.25787,4.606437 -0.29165,1.01698 -1.14263,2.0277 -2.12338,2.52284 -2.26166,1.14186 -4.74139,0.39053 -5.86579,-1.77715 -0.80333,-1.54863 -1.03039,-6.882087 -0.37671,-8.850097 0.70368,-2.11858 2.58087,-3.37647 4.49326,-3.36414 z m 47.6808,0.0481 c 2.2157,0.0335 3.61841,1.50011 3.98375,4.16564 l 0.1633,1.19166 h -4.4354 -4.43539 l 0.17933,-1.12448 c 0.41431,-2.59157 2.21422,-4.26802 4.54441,-4.23282 z m -19.21897,0.0253 c 1.64706,-0.0128 3.03081,0.65322 3.73981,1.80041 1.09696,1.77492 0.9416,9.343917 -0.22376,10.904757 -0.27104,0.36308 -0.90297,0.86412 -1.40404,1.11311 -1.22179,0.60711 -2.03814,0.73663 -3.23186,0.51315 -2.16275,-0.40488 -3.33417,-2.44113 -3.5574,-6.182567 -0.31726,-5.31773 1.29265,-8.12266 4.67725,-8.14886 z m -114.19148,0.004 c 0.89054,-0.0156 1.79298,0.15529 2.26652,0.49971 0.92329,0.67155 1.86862,2.60707 1.86862,3.8256 v 1.00253 h -4.37751 -4.37751 l 0.17984,-0.99219 c 0.33636,-1.8578 1.25886,-3.2659 2.59106,-3.9548 0.47106,-0.24359 1.15633,-0.36874 1.84898,-0.38085 z m 30.61932,0.003 c 0.98136,0.009 1.90632,0.28059 2.49545,0.83406 1.15615,1.08615 1.58068,2.72063 1.57768,6.0787 -0.003,4.036807 -0.7345,6.106787 -2.466,6.978377 -2.25126,1.13321 -4.74032,0.42159 -5.9986,-1.71462 -0.46116,-0.78298 -0.52916,-1.37398 -0.52916,-4.602307 0,-4.11881 0.24514,-5.19045 1.44952,-6.34431 0.85435,-0.81852 2.20935,-1.24142 3.47111,-1.2299 z m 20.92533,6.93808 -0.0904,2.612237 c -0.0816,2.35262 -0.15673,2.68396 -0.75241,3.329 -0.3638,0.39396 -1.04429,0.87947 -1.51257,1.079 -1.09085,0.46482 -2.92142,0.44781 -3.8101,-0.0351 -0.94729,-0.5148 -1.65357,-2.07517 -1.46503,-3.23701 0.3665,-2.25848 1.54117,-2.898937 6.61407,-3.606497 z M 277.6145,118.2112 v 12.43541 12.43542 h 1.45521 1.45521 v -0.92604 c 0,-1.10001 0.14724,-1.13771 1.05214,-0.27078 0.37608,0.36034 1.15652,0.83532 1.73427,1.05574 1.43943,0.54915 4.16856,0.38436 5.58104,-0.33692 2.27695,-1.16271 3.49123,-3.64823 3.73261,-7.64087 0.24487,-4.05048 -0.55618,-6.85803 -2.42364,-8.49768 -2.26129,-1.98546 -6.46647,-1.70013 -8.59793,0.58344 -0.35279,0.37795 -0.73974,0.68728 -0.85989,0.68728 -0.12015,0 -0.2186,-2.14313 -0.2186,-4.7625 v -4.7625 h -1.45521 z m 27.25209,0 v 12.43541 12.43542 h 1.4552 1.45521 V 130.64661 118.2112 h -1.45521 z m 46.56666,0 v 4.49791 c 0,2.47386 -0.0643,4.49792 -0.14314,4.49792 -0.0788,0 -0.40627,-0.2485 -0.7276,-0.55189 -1.19465,-1.12792 -2.09042,-1.425 -4.28863,-1.4242 -2.33897,9.8e-4 -3.62236,0.49027 -4.94647,1.88566 -1.64893,1.73773 -2.44438,5.48544 -2.01485,9.49452 0.36295,3.38746 1.70841,5.47676 4.10001,6.36809 2.12957,0.79365 5.69994,0.058 7.06985,-1.45677 0.73091,-0.80817 0.95083,-0.69191 0.95083,0.50126 v 1.05833 h 1.32292 1.32291 V 130.64661 118.2112 h -1.32291 z m -183.40843,0.13229 -4.86844,12.16774 c -2.67776,6.69239 -4.86895,12.25857 -4.86895,12.36927 0,0.11065 0.64222,0.20153 1.42679,0.20153 1.40297,0 1.43305,-0.0163 1.81487,-0.99219 0.21352,-0.5457 1.07204,-2.75119 1.90789,-4.90098 l 1.51929,-3.90882 4.53719,0.0724 4.53668,0.0723 1.61799,4.7625 1.61799,4.7625 1.74873,0.078 1.74821,0.0781 -1.68827,-4.84056 c -0.92871,-2.66229 -2.87547,-8.2338 -4.32583,-12.38115 l -2.63705,-7.54062 h -2.04329 z m 128.90427,0.1044 v 1.61539 1.61541 l 1.38906,-0.0801 1.38906,-0.0801 v -1.45521 -1.45521 l -1.38906,-0.0801 z m 16.13958,0 v 1.61539 1.61541 l 1.38906,-0.0801 1.38906,-0.0801 v -1.45521 -1.45521 l -1.38906,-0.0801 z m 102.92291,0.0279 v 1.5875 1.5875 h 1.45521 1.45521 v -1.5875 -1.5875 h -1.45521 z m -210.07915,2.62154 -0.99219,0.16743 c -1.98863,0.33549 -1.91823,0.25271 -1.91823,2.25568 v 1.83452 h -1.32292 -1.32291 v 0.92604 0.92604 h 1.31103 1.31052 l 0.0785,6.99286 c 0.0743,6.61696 0.10781,7.03278 0.632,7.73906 0.30467,0.41053 0.95951,0.88826 1.45521,1.06196 1.13358,0.39724 2.72566,0.42386 4.01009,0.0672 0.9026,-0.25067 0.99219,-0.35822 0.99219,-1.19219 v -0.91673 l -1.04541,0.1669 c -1.59679,0.25535 -2.37239,-0.045 -2.8081,-1.08778 -0.29144,-0.69749 -0.37982,-2.29092 -0.37982,-6.86985 v -5.96141 h 1.71979 1.71979 v -0.92604 -0.92604 h -1.71979 -1.71979 v -2.12855 z m -36.33473,0.016 c 0.2247,-0.0213 3.52639,9.19049 3.52639,9.85882 0,0.11203 -1.60734,0.2036 -3.57187,0.2036 -2.1684,0 -3.57187,-0.10223 -3.57187,-0.26046 0,-0.19843 2.45009,-6.84688 3.60908,-9.79371 0.002,-0.005 0.005,-0.008 0.008,-0.008 z m 227.51015,0.008 c -0.0656,0 -0.72044,0.12872 -1.45521,0.28631 l -1.33636,0.28678 v 1.82989 1.83036 h -1.32292 -1.32291 v 0.92604 0.92604 h 1.32291 1.32292 l 10e-4,6.41615 c 8.2e-4,3.58354 0.12174,6.84919 0.2739,7.39698 0.27104,0.97591 1.21642,1.87687 2.23808,2.13267 h 5.3e-4 c 0.96266,0.24104 2.52749,0.19788 3.71967,-0.10231 1.09448,-0.27559 1.17512,-0.35634 1.17512,-1.17152 v -0.87538 l -1.40353,0.14468 c -1.23487,0.12745 -1.49731,0.0643 -2.18281,-0.52502 l -0.77928,-0.66974 -0.0832,-6.37325 -0.0837,-6.37326 h 1.73736 1.73686 v -0.92604 -0.92604 h -1.71979 -1.71979 V 123.238 c 0,-1.16417 -0.0533,-2.11667 -0.11885,-2.11667 z m -177.2941,3.98426 c -2.07713,-0.02 -4.0873,0.5583 -5.30303,1.62573 -2.51627,2.20932 -3.42039,7.57341 -2.05311,12.17755 0.51599,1.73752 2.23817,3.47557 3.97134,4.00804 v -5.2e-4 c 1.70216,0.52321 4.16185,0.52625 5.92625,0.007 1.89611,-0.55777 3.64265,-2.31238 4.28656,-4.3062 0.60457,-1.87204 0.63215,-7.02332 0.0481,-8.99015 -0.5732,-1.93021 -2.18219,-3.5565 -4.07004,-4.11345 -0.90365,-0.26659 -1.86188,-0.39912 -2.80603,-0.40825 z m 164.09178,0.008 c -2.60014,-0.0327 -5.08341,1.11609 -5.90092,3.07269 -0.5284,1.26462 -0.44931,3.23223 0.17053,4.24883 0.71038,1.1651 1.77892,1.76684 4.81211,2.71042 2.84297,0.8844 4.03534,1.69826 4.27984,2.92076 0.22492,1.12454 -0.41185,2.51111 -1.3839,3.01377 -1.04024,0.53792 -3.01921,0.52938 -4.17285,-0.0181 -0.99277,-0.47112 -1.68209,-1.53551 -1.68209,-2.59729 0,-0.64129 -0.0718,-0.67437 -1.45521,-0.67437 -1.3512,0 -1.45521,0.0442 -1.45521,0.62167 0,1.92884 1.52602,3.9402 3.43546,4.52892 1.46055,0.45032 4.13441,0.50605 5.67613,0.11782 1.40925,-0.35486 3.00392,-1.63115 3.4892,-2.79259 0.54475,-1.30374 0.46148,-3.4208 -0.17931,-4.56094 -0.738,-1.31313 -1.80412,-1.97927 -4.62452,-2.89029 -3.932,-1.27005 -4.62196,-1.78318 -4.62196,-3.43543 0,-0.92001 0.98343,-2.07721 1.97663,-2.32648 0.38412,-0.0964 1.30971,-0.11623 2.05724,-0.0445 1.57541,0.1514 2.44665,0.93221 2.73111,2.44843 0.17018,0.9071 0.19809,0.92501 1.46658,0.92501 1.23897,0 1.29344,-0.0313 1.29344,-0.73792 0,-1.39989 -1.07791,-3.04255 -2.43964,-3.71814 -1.08469,-0.53811 -2.29076,-0.79751 -3.47266,-0.81235 z m 46.93926,0.0176 c -0.27988,0.003 -0.56846,0.0175 -0.86506,0.0424 -4.61936,0.38727 -6.92766,3.58563 -6.91017,9.57408 0.006,2.10171 0.13054,2.96505 0.60616,4.19769 0.74988,1.94347 2.13958,3.36052 3.85505,3.93152 2.54863,0.84831 5.9354,0.46532 7.95404,-0.89969 0.90847,-0.61425 2.22261,-2.80826 2.22261,-3.70983 0,-0.40073 -0.22799,-0.47699 -1.42214,-0.47699 -1.35305,0 -1.42901,0.0365 -1.57303,0.75655 -0.2159,1.07956 -1.36159,2.33061 -2.46858,2.69595 -1.22206,0.40333 -3.13574,0.18468 -4.02506,-0.46043 -1.07759,-0.78166 -1.89195,-2.67393 -2.07121,-4.81211 l -0.15811,-1.88412 h 5.98154 5.98154 l -0.15915,-1.78594 c -0.43018,-4.82335 -2.75002,-7.21659 -6.94843,-7.16907 z m -164.92067,0.005 c -0.20936,0.005 -0.42193,0.0152 -0.6377,0.0315 -3.55144,0.2686 -5.98889,2.27174 -6.67866,5.48804 -0.41024,1.91296 -0.3593,6.28377 0.091,7.77989 0.72576,2.41146 2.46317,4.11263 4.76094,4.66224 1.20997,0.28946 3.85879,0.28192 4.92374,-0.0139 2.89152,-0.8033 4.54832,-2.9551 5.07928,-6.59805 0.37841,-2.59627 -0.005,-6.28927 -0.81803,-7.88323 -1.17565,-2.30447 -3.58013,-3.53658 -6.72053,-3.46646 z m 64.10563,0.006 c -0.36263,-0.009 -0.74244,0.007 -1.13842,0.0475 -1.60689,0.16656 -2.67078,0.59902 -4.09485,1.66503 l -0.85989,0.64389 v -1.07178 -1.07177 h -1.45521 -1.45521 v 8.86354 8.86354 h 1.45521 1.45521 v -6.35878 c 0,-4.77174 0.0904,-6.57358 0.36123,-7.22178 1.18684,-2.84051 5.71471,-3.45435 7.16701,-0.97152 0.50112,0.85674 0.54795,1.43586 0.62423,7.73906 l 0.0822,6.81302 h 1.43917 1.43867 v -6.46938 c 0,-3.81952 -0.12276,-7.04157 -0.29972,-7.8667 -0.48566,-2.26462 -2.18101,-3.54036 -4.71961,-3.60391 z m -90.20378,0.001 c -1.53502,-0.0404 -3.24015,0.47421 -4.59094,1.55755 l -0.99219,0.79581 v -1.07074 -1.07074 h -1.4552 -1.45521 v 8.86354 l -0.001,-5e-4 v 8.86354 h 1.4552 1.45521 v -6.49058 c 0,-7.21825 0.10624,-7.79989 1.62368,-8.88214 1.24772,-0.88955 3.3495,-0.89289 4.29276,-0.007 1.00862,0.94755 1.22731,2.60395 1.22731,9.30744 v 6.0725 h 1.44281 1.4428 l 0.0786,-6.99079 0.0786,-6.99027 0.66145,-0.71676 c 1.94342,-2.10484 5.14416,-1.77673 5.80276,0.59481 0.16121,0.58063 0.28112,3.77481 0.28112,7.55457 l 0.003,6.54844 h 1.47018 1.47021 l -0.0811,-7.47448 c -0.0931,-8.56461 -0.15004,-8.80684 -2.33629,-9.94098 -2.03314,-1.05476 -5.1688,-0.4224 -6.85332,1.38235 -0.35279,0.37795 -0.71373,0.68728 -0.80253,0.68728 -0.0888,0 -0.37993,-0.36936 -0.64648,-0.82061 -0.67138,-1.13657 -2.03633,-1.73209 -3.57135,-1.77252 z m 171.64687,0.0258 c -1.10664,0.0147 -2.2194,0.53215 -3.1936,1.50638 l -0.99891,0.99838 v -1.15912 -1.15961 h -1.4552 -1.45521 v 8.86354 8.86354 h 1.45521 1.4552 v -6.62749 c 0,-7.384 0.08,-7.79013 1.68209,-8.55039 1.11334,-0.52834 2.72003,-0.54416 3.60958,-0.0357 0.99084,0.56644 1.05833,0.50779 1.05833,-0.9157 0,-1.30177 -0.008,-1.31482 -1.05833,-1.62935 -0.36211,-0.10851 -0.73028,-0.15942 -1.09916,-0.15452 z m -49.48896,0.1602 -1.36271,0.0791 -1.36218,0.0791 0.005,6.74687 c 0.005,7.14399 0.15192,8.22489 1.28465,9.49349 0.30949,0.34661 1.03849,0.85013 1.62058,1.11879 h 5.3e-4 c 2.00683,0.9262 4.83137,0.50348 7.10964,-1.06402 l 1.22473,-0.84233 v 1.07125 1.07074 h 1.45521 1.45521 v -8.86354 -8.86354 h -1.4428 -1.4423 l -0.0791,6.72827 c -0.0896,7.64397 -0.0975,7.67361 -2.3332,8.816 -2.16503,1.10627 -4.46119,0.55554 -5.46478,-1.31104 -0.40436,-0.75208 -0.48215,-1.78959 -0.56843,-7.56542 z m -178.54104,0.0258 v 7.01974 c 0,5.71878 0.0757,7.20087 0.40722,7.99433 0.54822,1.31204 1.11207,1.9019 2.37091,2.47997 h 5.2e-4 c 2.01102,0.92344 5.01627,0.46614 7.18871,-1.094 l 1.14566,-0.8227 v 1.07487 1.07487 h 1.45521 1.45521 v -8.86354 -8.86354 h -1.44281 -1.44229 l -0.0791,6.72827 c -0.0896,7.64397 -0.0975,7.67361 -2.33319,8.816 -2.16726,1.10741 -4.48202,0.55049 -5.44825,-1.31104 -0.38044,-0.73297 -0.47259,-1.93405 -0.57826,-7.5525 l -0.12557,-6.68073 h -1.28674 z m 113.50625,0 v 8.86354 8.86354 h 1.4552 1.45521 v -8.86354 -8.86354 h -1.45521 z m 16.13958,0 v 8.86354 8.86354 h 1.45521 1.45521 v -8.86354 -8.86354 h -1.45521 z m 102.92291,0 v 8.86354 8.86354 h 1.45521 1.45521 v -8.86354 -8.86354 h -1.45521 z m -149.81668,1.55702 c 1.39335,0.0417 2.73571,0.81494 3.5021,2.30425 0.61542,1.19584 0.66067,1.54414 0.64908,4.99608 -0.014,4.11252 -0.24022,4.96223 -1.68984,6.34378 -0.69459,0.66196 -1.07231,0.79579 -2.46909,0.87437 -1.91916,0.10795 -2.95048,-0.38283 -3.83697,-1.82676 -1.44674,-2.35641 -1.42443,-8.43487 0.0387,-10.60607 0.96867,-1.4374 2.41263,-2.12735 3.80598,-2.08565 z m -46.51137,0.0227 c 1.52109,-0.008 2.87219,0.84093 3.65559,2.41848 1.1616,2.33908 1.03475,8.18118 -0.22273,10.24898 -0.28051,0.46125 -0.89823,1.07561 -1.37252,1.36477 -0.56206,0.34269 -1.33237,0.52605 -2.21227,0.52658 -1.69259,0.001 -2.8905,-0.75044 -3.80959,-2.39054 -0.61106,-1.09053 -0.66146,-1.44216 -0.66146,-4.61989 0,-3.17323 0.0547,-3.55632 0.70539,-4.9444 0.55185,-1.17726 0.9383,-1.62335 1.7756,-2.05052 0.72434,-0.36952 1.45058,-0.54991 2.14199,-0.55346 z m 65.67712,0.0336 c 0.74745,-0.02 1.46693,0.1507 2.04949,0.54673 0.50147,0.34086 1.12342,0.9824 1.38234,1.42576 0.62476,1.06971 1.07974,4.35941 0.87644,6.33603 -0.35989,3.49867 -1.27471,5.23822 -3.12177,5.93609 -1.83377,0.69284 -4.3552,-0.18331 -5.33715,-1.85468 -0.46979,-0.7996 -0.53279,-1.37448 -0.53279,-4.87516 0,-3.37206 0.0758,-4.12162 0.50438,-4.9847 0.75456,-1.51968 2.53465,-2.48618 4.17906,-2.53007 z m 61.72698,0.10644 c 1.88838,0 2.80979,0.48969 3.66334,1.94717 0.60129,1.02661 0.84656,4.0885 0.5819,7.2657 -0.20437,2.4534 -0.67051,3.47586 -2.05105,4.49845 -0.91014,0.67413 -3.20855,0.85664 -4.33824,0.34467 -1.61907,-0.73369 -2.43962,-2.57535 -2.66753,-5.9862 -0.2481,-3.71292 0.52011,-6.1354 2.38384,-7.51634 0.57375,-0.42513 1.13657,-0.55345 2.42774,-0.55345 z m 83.70601,0 c 1.02243,0 1.75377,0.1574 2.25412,0.48524 0.86445,0.56642 1.66574,2.24185 1.79266,3.74809 l 0.0889,1.05834 -4.27982,0.0724 c -2.35392,0.0399 -4.33374,-0.0196 -4.39975,-0.13229 -0.20847,-0.35576 0.51757,-2.73273 1.0542,-3.45149 0.99801,-1.33676 1.86775,-1.78025 3.48972,-1.78025 z" />
    <path
       id="path847"
       style="fill:#00774c;fill-opacity:1;stroke-width:0.999999"
       d="m 244.64258,310.42773 c -8.139,0 -10.87025,0.40335 -14.67578,2.16211 -5.77263,2.66786 -13.18745,9.38469 -16.31836,14.78125 -3.02511,5.21416 -73.70546,210.59435 -73.05664,212.28516 0.70108,1.82717 50.84752,1.84756 52.29882,0.0215 0.5464,-0.68749 3.7741,-10.69999 7.17188,-22.25 3.39779,-11.55001 6.41113,-21.78485 6.69531,-22.74414 0.48511,-1.63751 5.45708,-1.75962 81.25781,-2 l 80.74024,-0.25586 -6.94141,-20.25 -6.94336,-20.25 h -67.36328 c -37.05038,0 -67.36523,-0.36098 -67.36523,-0.80273 0,-0.44179 4.66453,-16.75429 10.36523,-36.25 5.70069,-19.49575 11.19959,-38.70975 12.22071,-42.69727 1.02111,-3.98747 2.1039,-7.25 2.40429,-7.25 0.30039,0 1.3279,3.03753 2.28321,6.75 0.95531,3.71252 6.08671,20.58749 11.40429,37.5 l 9.66797,30.75 h 24.32813 c 13.3799,0 24.32617,-0.39038 24.32617,-0.86914 0,-0.47871 -8.7278,-25.19407 -19.39649,-54.92187 -12.67601,-35.32113 -20.46177,-55.59663 -22.46875,-58.51367 -3.97599,-5.77894 -8.31672,-9.39266 -15.13476,-12.60352 -4.77247,-2.24776 -6.82279,-2.5918 -15.5,-2.5918 z m -519.48828,2.5 c -17.80052,0 -24.02393,0.31378 -24.79102,1.25 -0.73364,0.89537 9.01539,30.33082 34.36328,103.75 19.4634,56.37502 36.29338,104.4205 37.39844,106.76758 3.84665,8.16987 12.48843,15.695 21.01758,18.29883 5.16994,1.57833 16.75055,0.99985 22.41406,-1.11914 6.73901,-2.5214 14.28237,-9.13225 17.79688,-15.59766 3.55158,-6.53363 72.136226,-209.99935 71.417964,-211.87109 -0.478941,-1.248 -4.405218,-1.47423 -25.347654,-1.46289 -13.62973,0.008 -25.37809,0.39503 -26.10742,0.85742 -1.0927,0.69275 -43.94783,148.43636 -48.13086,165.93164 -0.69748,2.91719 -1.48222,5.09005 -1.74414,4.82813 -0.26181,-0.26181 -1.71333,-5.34929 -3.22461,-11.30469 -1.51132,-5.95536 -12.78212,-43.67813 -25.04688,-83.82813 -15.72956,-51.4924 -22.88053,-73.51556 -24.27344,-74.75 -1.76277,-1.56215 -4.52611,-1.75 -25.74218,-1.75 z m 282.4882781,0.57813 c -24.7500091,-0.0424 -47.0920411,0.28097 -49.6484371,0.71875 -10.632567,1.82086 -18.678766,10.93807 -20.867188,23.64258 -0.799635,4.63842 -1.034924,31.91663 -0.806641,93.06054 l 0.322266,86.5 2.273438,5.6211 c 3.583785,8.86016 10.207624,14.73201 18.943359,16.78906 2.080365,0.48987 20.486848,0.93505 40.9023438,0.99023 29.1219392,0.0788 39.0022282,-0.2284 45.8574222,-1.42382 42.974343,-7.49409 70.575029,-37.14691 79.095699,-84.97657 2.38557,-13.39086 2.41363,-42.87231 0.0547,-57 -4.48907,-26.88495 -13.99205,-47.82018 -28.11328,-61.9414 -9.660249,-9.66025 -20.369753,-15.68777 -35.013672,-19.70703 -7.664466,-2.10357 -9.887422,-2.19936 -52.9999999,-2.27344 z m 7.7578129,38.60352 c 19.155679,0.0351 25.617883,1.2402 34.390625,5.49804 11.975206,5.81216 22.410429,20.1524 26.792968,36.82031 2.831199,10.76822 4.101716,30.13662 2.804688,42.75 -1.505582,14.64133 -3.290146,21.27954 -8.679688,32.26954 -5.896921,12.02456 -13.764306,19.99608 -25.457031,25.79296 l -8.449219,4.1875 -27.3378902,0.31055 -27.3359378,0.3086 0.257813,-73.8086 0.255859,-73.81055 23.7285158,-0.26757 c 3.2983699,-0.0373 6.2927712,-0.0558 9.0292972,-0.0508 z M 314.9375,504.92773 c -20.39644,0 -25.9054,0.26975 -25.5293,1.25 0.26378,0.6875 2.64293,8.00001 5.28711,16.25 2.64419,8.24999 5.47207,15.78751 6.28321,16.75 1.33139,1.57992 3.88226,1.75 26.23632,1.75 18.90822,0 24.86548,-0.29548 25.20118,-1.25 0.35843,-1.01915 -3.59577,-13.10512 -10.46875,-32 l -1,-2.75 z"
       transform="scale(0.26458333)" />
  </g>
</svg>
